<svg data-name="Layer 1" xmlns="http://www.w3.org/2000/svg" viewBox="0 0 344.13 65.35">
    <title>Thomas Logo</title>
    <path fill="#48b2e8" d="M0 0h40.8v13.6H0z" />
    <path fill="#fff" d="M0 27.2h13.6v36.87H0zM27.2 27.2h13.6v36.87H27.2zM92.18 36.08v28H81.95v-28H71.62V27.2h30.88v8.88zM135.66 64.08V49.55h-11.49v14.53h-10.44V27.2h10.43v13.44h11.49V27.2h10.43v36.88zM174.34 64.67c-10 0-17-6.69-17-19s7.11-19.05 17.11-19.05 17 6.69 17 19-7.09 19.05-17.11 19.05zm0-29.14c-4.11 0-6.43 3.43-6.43 10.07s2.42 10.17 6.54 10.17 6.43-3.43 6.43-10.07-2.43-10.17-6.54-10.17zM230.11 64.08v-8.8c0-3.64.05-7 .21-9.8-1.11 2.74-3 7-4.27 9.64l-4.85 10.22-4.85-10.21c-1.26-2.64-3.16-6.9-4.27-9.64.16 2.85.21 6.17.21 9.8v8.79h-9.59V27.2h9.38l4.53 9.88a98.51 98.51 0 0 1 4.64 11.1 105.18 105.18 0 0 1 4.64-11.1l4.56-9.88h9.28v36.88zM276.27 64.08l-2-6.48H263.2l-2 6.48h-11l13.39-36.89h10.33l13.42 36.89zm-5.16-17c-1.32-4.74-1.9-6.75-2.37-9.22-.47 2.48-1.05 4.53-2.37 9.22l-.69 2.42h6.11zM312.01 64.67a29.41 29.41 0 0 1-15.56-4.48l5-8c2.69 1.84 7.38 3.69 10.8 3.69 3.64 0 4.8-.63 4.8-2.37 0-1.37-1.32-2.21-6.27-3.37-8.91-2.06-13.18-4.48-13.18-11.86 0-7 5.64-11.65 14.55-11.65 6.27 0 10.8 1.53 14.7 4.27l-5 8a17.87 17.87 0 0 0-10.28-3.48c-3.06 0-3.79.95-3.79 2.27s1.32 2 6.06 3.11c9.28 2.21 13.39 5.06 13.39 12 .01 8.39-6.37 11.87-15.22 11.87zM336.8 27.71v4.52h-.79v-4.52h-1.56v-.78h3.88v.78zM343.35 32.23v-2.8-.93c-.06.15-.21.53-.34.83l-1.29 3-1.27-3c-.13-.3-.28-.68-.34-.83v3.73h-.75v-5.3h.82l1.19 2.82c.13.3.29.69.36.91.08-.22.23-.6.36-.91l1.17-2.82h.85v5.3z" />
</svg>